<?xml version="1.0"?>
<svg xmlns="http://www.w3.org/2000/svg" version="1.1" viewBox="95 322 1075 292" width="1075" height="292">

<g transform="matrix(1.3370955578659385 0 0 1.3370955578659385 1026.9889000183944 446.694509360851)" id="logo-logo">
<g style="" paint-order="stroke">
&#x9;&#x9;<g transform="matrix(0.6189411787012403 0 0 -0.6189411787012403 0 -2.842171e-14)">
<path style="stroke: none; stroke-width: 1; stroke-dasharray: none; stroke-linecap: butt; stroke-dashoffset: 0; stroke-linejoin: miter; stroke-miterlimit: 4; fill: rgb(26,26,26); fill-rule: nonzero; opacity: 1;" paint-order="stroke" transform=" translate(92.52921911329733, -100.43377484125992)" d="M 0 0 C -23.427 -3.793 -42.298 13.315 -51.765 46.929 C -52.874 50.868 -53.854 55.152 -54.735 59.712 C -52.653999999999996 59.249 -50.629999999999995 58.800000000000004 -48.657 58.36300000000001 C -31.676999999999996 54.598000000000006 -18.799999999999997 51.74400000000001 -10.061 48.73800000000001 C -8.768 48.293000000000006 -2.4000000000000004 46.053000000000004 -0.14700000000000024 45.147000000000006 C 10.508 40.865 26.594 31.93 27.133 20.223 C 27.417 14.039 15.895 2.569 0 0 M -198.925 4.819 C -206.24200000000002 4.819 -212.19500000000002 10.774000000000001 -212.19500000000002 18.092 C -212.19500000000002 25.407999999999998 -206.24200000000002 31.360999999999997 -198.925 31.360999999999997 C -197.989 31.360999999999997 -197.071 31.261999999999997 -196.174 31.072999999999997 C -195.46200000000002 22.971999999999994 -193.381 15.366999999999997 -189.98600000000002 8.301999999999996 C -192.40900000000002 6.074999999999996 -195.54600000000002 4.8189999999999955 -198.925 4.8189999999999955 M -5.823 58.35 C -15.218 61.677 -28.611 64.646 -46.389 68.588 C -49.653000000000006 69.312 -53.068000000000005 70.068 -56.627 70.86399999999999 C -58.611000000000004 84.085 -60.062000000000005 98.96099999999998 -61.56 114.34599999999999 C -66.872 168.85999999999999 -72.364 225.22899999999998 -102.766 246.11699999999996 C -116.03200000000001 255.22799999999995 -124.286 248.21999999999997 -127.215 244.77899999999997 C -143.3 225.90799999999996 -135.398 161.32999999999998 -100.013 110.85999999999996 C -126.20100000000001 126.31699999999995 -165.959 155.55699999999996 -165.959 190.59699999999995 C -165.959 198.50299999999996 -164.229 200.91899999999995 -163.564 201.18499999999995 C -161.10299999999998 202.15599999999995 -153.138 197.10199999999995 -147.185 190.77199999999993 C -145.208 188.66199999999992 -141.897 188.55099999999993 -139.784 190.53099999999992 C -137.673 192.50899999999993 -137.564 195.82299999999992 -139.542 197.93199999999993 C -142.284 200.85699999999994 -156.535 215.22999999999993 -167.412 210.92399999999992 C -176.433 207.35799999999992 -176.433 194.7429999999999 -176.433 190.59699999999992 C -176.433 131.7969999999999 -85.65599999999999 91.12399999999992 -81.79199999999999 89.41999999999992 C -79.51399999999998 88.41399999999992 -76.832 89.15999999999991 -75.39599999999999 91.20199999999991 C -73.96199999999999 93.24499999999992 -74.16799999999999 96.01799999999992 -75.88899999999998 97.82299999999991 C -125.52799999999999 149.94799999999992 -131.94099999999997 223.0889999999999 -119.24599999999998 237.9849999999999 C -118.06699999999998 239.3619999999999 -115.62299999999998 242.2449999999999 -108.69899999999998 237.4839999999999 C -82.31599999999999 219.3579999999999 -76.82799999999999 163.02999999999992 -71.98299999999998 113.3319999999999 C -70.62099999999998 99.33999999999989 -69.29799999999997 85.76299999999989 -67.56699999999998 73.3419999999999 C -80.87599999999998 76.3959999999999 -95.98899999999998 80.0279999999999 -113.00199999999998 84.5719999999999 C -126.08399999999997 88.0659999999999 -138.166 89.4979999999999 -148.926 88.8479999999999 C -174.20999999999998 87.3079999999999 -194.25799999999998 66.95699999999991 -196.27999999999997 41.6789999999999 C -197.15399999999997 41.7749999999999 -198.03399999999996 41.8349999999999 -198.92499999999998 41.8349999999999 C -212.017 41.8349999999999 -222.66799999999998 31.1839999999999 -222.66799999999998 18.091999999999903 C -222.66799999999998 4.996999999999902 -212.01699999999997 -5.654000000000096 -198.92499999999998 -5.654000000000096 C -193.73499999999999 -5.654000000000096 -188.73999999999998 -3.896000000000096 -184.66299999999998 -0.8330000000000961 C -174.84499999999997 -14.966000000000095 -159.003 -26.502000000000095 -137.50699999999998 -34.9640000000001 C -109.95999999999998 -45.8080000000001 -82.87299999999998 -47.892000000000095 -80.52999999999997 -48.0540000000001 C -70.44899999999997 -49.1790000000001 -61.235999999999976 -49.7410000000001 -52.92699999999997 -49.7410000000001 C -41.03699999999997 -49.7410000000001 -30.99999999999997 -48.590000000000096 -22.927999999999972 -46.2920000000001 C -18.53099999999997 -45.0430000000001 -15.684999999999972 -41.1250000000001 -15.837999999999973 -36.547000000000104 C -15.994999999999973 -31.940000000000104 -19.122999999999973 -28.201000000000104 -23.622999999999973 -27.2430000000001 L -57.89899999999997 -19.9510000000001 C -57.08799999999997 6.8629999999999 -63.97599999999997 25.360999999999898 -78.39999999999998 35.0719999999999 C -104.61999999999998 52.7279999999999 -145.15799999999996 33.707999999999906 -146.868 32.8899999999999 C -149.478 31.643999999999902 -150.583 28.515999999999902 -149.337 25.9079999999999 C -148.09099999999998 23.2959999999999 -144.963 22.192999999999902 -142.355 23.437999999999903 C -141.98899999999998 23.6139999999999 -105.56299999999999 40.7339999999999 -84.249 26.384999999999902 C -72.323 18.354999999999905 -67.044 1.4589999999999037 -68.55799999999999 -23.836000000000094 C -68.713 -26.421000000000095 -66.95299999999999 -28.730000000000096 -64.42099999999999 -29.271000000000093 L -28.49799999999999 -36.91500000000009 C -37.596999999999994 -39.02800000000009 -53.376999999999995 -40.55500000000009 -79.47999999999999 -37.633000000000095 C -79.56099999999999 -37.62500000000009 -79.64099999999999 -37.6170000000001 -79.72099999999999 -37.61300000000009 C -80.78199999999998 -37.54100000000009 -185.855 -29.80900000000009 -185.986 37.38399999999991 C -186.029 59.089999999999904 -169.47199999999998 77.1039999999999 -148.28799999999998 78.39499999999991 C -138.66699999999997 78.9829999999999 -127.69399999999999 77.6559999999999 -115.70499999999998 74.45399999999991 C -96.77099999999999 69.3959999999999 -80.201 65.46599999999991 -65.83899999999998 62.204999999999906 C -64.70499999999998 55.689999999999905 -63.399999999999984 49.60599999999991 -61.84599999999998 44.088999999999906 C -46.11499999999998 -11.761000000000095 -12.184999999999981 -12.572000000000095 1.6710000000000207 -10.341000000000093 C 21.07500000000002 -7.202000000000094 38.19900000000002 7.595999999999908 37.59400000000002 20.705999999999907 C 36.669000000000025 40.82899999999991 10.818000000000023 52.27599999999991 0.8510000000000204 55.95199999999991 C -0.9039999999999795 56.59899999999991 -4.732999999999979 57.96399999999991 -5.82299999999998 58.349999999999916" stroke-linecap="round"></path>
</g>
&#x9;&#x9;<g transform="matrix(0.6189411787012403 0 0 -0.6189411787012403 54.4863940969629 40.86972265786639)">
<path style="stroke: none; stroke-width: 1; stroke-dasharray: none; stroke-linecap: butt; stroke-dashoffset: 0; stroke-linejoin: miter; stroke-miterlimit: 4; fill: rgb(26,26,26); fill-rule: nonzero; opacity: 1;" paint-order="stroke" transform=" translate(0.0004999999999997229, 7.2415)" d="M 0 0 C -4 0 -7.242 -3.242 -7.242 -7.241 C -7.242 -11.241 -4 -14.483 0 -14.483 C 3.999 -14.483 7.241 -11.241 7.241 -7.2410000000000005 C 7.241 -3.242 3.999 0 0 0" stroke-linecap="round"></path>
</g>
</g>
</g>
<g transform="matrix(1.9211538461538462 0 0 1.9211538461538462 498.280208268093 474.1625445799578)"><path transform=" translate(-207.525, 20.3)" style="fill:rgb(26,26,26);fill-rule:nonzero;" d="M 2.61 -29.17 L 2.61 -11.43 C 2.61 -4.58 7.71 0.58 14.56 0.58 L 14.56 -5.22 C 10.5 -5.22 8.41 -7.37 8.41 -11.43 L 8.41 -29.17 C 8.41 -33.23 10.5 -35.38 14.56 -35.38 L 14.56 -41.18 C 7.71 -41.18 2.61 -36.02 2.61 -29.17 Z"></path><path transform=" translate(-207.525, 20.3)" style="fill:rgb(26,26,26);fill-rule:nonzero;" d="M 16.3 0.58 C 22.91 0.52 28.19 -4.81 28.19 -11.37 C 28.19 -12.99 26.91 -14.27 25.29 -14.27 C 23.66 -14.27 22.39 -12.99 22.39 -11.37 C 22.39 -7.6 20.07 -5.28 16.3 -5.22 Z"></path><path transform=" translate(-207.525, 20.3)" style="fill:rgb(26,26,26);fill-rule:nonzero;" d="M 16.3 -35.38 C 20.07 -35.32 22.39 -33 22.39 -29.23 C 22.39 -27.61 23.66 -26.33 25.29 -26.33 C 26.91 -26.33 28.19 -27.61 28.19 -29.23 C 28.19 -35.79 22.91 -41.12 16.3 -41.18 Z"></path><path transform=" translate(-207.525, 20.3)" style="fill:rgb(26,26,26);fill-rule:nonzero;" d="M 36.31 -29.17 L 36.31 -11.43 C 36.31 -4.58 41.41 0.58 48.26 0.58 L 48.26 -5.22 C 44.2 -5.22 42.11 -7.37 42.11 -11.43 L 42.11 -29.17 C 42.11 -33.23 44.2 -35.32 48.2 -35.38 L 48.31 -35.38 L 48.31 -41.18 C 41.41 -41.18 36.31 -36.08 36.31 -29.17 Z"></path><path transform=" translate(-207.525, 20.3)" style="fill:rgb(26,26,26);fill-rule:nonzero;" d="M 49.88 -35.38 C 53.71 -35.38 56.09 -33 56.09 -29.23 L 56.09 -11.37 C 56.09 -7.6 53.77 -5.28 50 -5.22 L 50 0.58 C 56.61 0.52 61.89 -4.81 61.89 -11.37 L 61.89 -29.23 C 61.89 -35.84 56.61 -41.12 49.88 -41.18 Z"></path><path transform=" translate(-207.525, 20.3)" style="fill:rgb(26,26,26);fill-rule:nonzero;" d="M 70.01 -37.12 L 70.01 -3.48 C 70.01 -1.51 71.51 0 73.49 0 L 75.81 0 L 75.81 -40.6 L 73.49 -40.6 C 71.51 -40.6 70.01 -39.09 70.01 -37.12 Z"></path><path transform=" translate(-207.525, 20.3)" style="fill:rgb(26,26,26);fill-rule:nonzero;" d="M 77.55 0 L 83.58 0 C 90.25 0 95.58 -5.34 95.58 -11.95 L 95.58 -29.35 C 95.58 -35.61 90.6 -40.6 84.33 -40.6 L 77.55 -40.6 L 77.55 -34.8 L 84.33 -34.8 C 87.75 -34.8 89.78 -32.77 89.78 -29.35 L 89.78 -11.95 C 89.78 -8.18 87.41 -5.8 83.58 -5.8 L 77.55 -5.8 Z"></path><path transform=" translate(-207.525, 20.3)" style="fill:rgb(26,26,26);fill-rule:nonzero;" d="M 103.7 -37.12 L 103.7 -3.48 C 103.7 -1.51 105.21 0 107.18 0 L 109.5 0 L 109.5 -40.6 L 107.18 -40.6 C 105.21 -40.6 103.7 -39.09 103.7 -37.12 Z"></path><path transform=" translate(-207.525, 20.3)" style="fill:rgb(26,26,26);fill-rule:nonzero;" d="M 111.24 0 L 125.74 0 C 127.37 0 128.64 -1.28 128.64 -2.9 C 128.64 -4.52 127.37 -5.8 125.74 -5.8 L 111.24 -5.8 Z"></path><path transform=" translate(-207.525, 20.3)" style="fill:rgb(26,26,26);fill-rule:nonzero;" d="M 111.24 -17.4 L 119.94 -17.4 C 121.57 -17.4 122.84 -18.68 122.84 -20.3 C 122.84 -21.92 121.57 -23.2 119.94 -23.2 L 111.24 -23.2 Z"></path><path transform=" translate(-207.525, 20.3)" style="fill:rgb(26,26,26);fill-rule:nonzero;" d="M 111.24 -34.8 L 125.74 -34.8 C 127.37 -34.8 128.64 -36.08 128.64 -37.7 C 128.64 -39.32 127.37 -40.6 125.74 -40.6 L 111.24 -40.6 Z"></path><path transform=" translate(-207.525, 20.3)" style="fill:rgb(178,178,181);fill-rule:nonzero;" d="M 139.66 -34.8 L 146.33 -34.8 L 146.33 -2.32 C 146.33 -0.7 147.61 0.58 149.23 0.58 C 150.86 0.58 152.13 -0.7 152.13 -2.32 L 152.13 -34.8 L 158.8 -34.8 C 160.43 -34.8 161.7 -36.08 161.7 -37.7 C 161.7 -39.32 160.43 -40.6 158.8 -40.6 L 139.66 -40.6 C 138.04 -40.6 136.76 -39.32 136.76 -37.7 C 136.76 -36.08 138.04 -34.8 139.66 -34.8 Z"></path><path transform=" translate(-207.525, 20.3)" style="fill:rgb(178,178,181);fill-rule:nonzero;" d="M 169.82 -38.28 L 169.82 -2.32 C 169.82 -0.7 171.1 0.58 172.72 0.58 C 174.35 0.58 175.62 -0.7 175.62 -2.32 L 175.62 -38.28 C 175.62 -39.9 174.35 -41.18 172.72 -41.18 C 171.1 -41.18 169.82 -39.9 169.82 -38.28 Z"></path><path transform=" translate(-207.525, 20.3)" style="fill:rgb(178,178,181);fill-rule:nonzero;" d="M 177.36 -17.4 L 188.96 -17.4 L 188.96 -2.32 C 188.96 -0.7 190.24 0.58 191.86 0.58 C 193.49 0.58 194.76 -0.7 194.76 -2.32 L 194.76 -38.28 C 194.76 -39.9 193.49 -41.18 191.86 -41.18 C 190.24 -41.18 188.96 -39.9 188.96 -38.28 L 188.96 -23.2 L 177.36 -23.2 Z"></path><path transform=" translate(-207.525, 20.3)" style="fill:rgb(178,178,181);fill-rule:nonzero;" d="M 202.88 -37.12 L 202.88 -3.48 C 202.88 -1.51 204.39 0 206.36 0 L 208.68 0 L 208.68 -40.6 L 206.36 -40.6 C 204.39 -40.6 202.88 -39.09 202.88 -37.12 Z"></path><path transform=" translate(-207.525, 20.3)" style="fill:rgb(178,178,181);fill-rule:nonzero;" d="M 210.42 0 L 224.92 0 C 226.55 0 227.82 -1.28 227.82 -2.9 C 227.82 -4.52 226.55 -5.8 224.92 -5.8 L 210.42 -5.8 Z"></path><path transform=" translate(-207.525, 20.3)" style="fill:rgb(178,178,181);fill-rule:nonzero;" d="M 210.42 -17.4 L 219.12 -17.4 C 220.75 -17.4 222.02 -18.68 222.02 -20.3 C 222.02 -21.92 220.75 -23.2 219.12 -23.2 L 210.42 -23.2 Z"></path><path transform=" translate(-207.525, 20.3)" style="fill:rgb(178,178,181);fill-rule:nonzero;" d="M 210.42 -34.8 L 224.92 -34.8 C 226.55 -34.8 227.82 -36.08 227.82 -37.7 C 227.82 -39.32 226.55 -40.6 224.92 -40.6 L 210.42 -40.6 Z"></path><path transform=" translate(-207.525, 20.3)" style="fill:rgb(26,26,26);fill-rule:nonzero;" d="M 235.94 -37.12 L 235.94 -2.32 C 235.94 -0.7 237.22 0.58 238.84 0.58 C 240.47 0.58 241.74 -0.7 241.74 -2.32 L 241.74 -40.6 L 239.42 -40.6 C 237.45 -40.6 235.94 -39.09 235.94 -37.12 Z"></path><path transform=" translate(-207.525, 20.3)" style="fill:rgb(26,26,26);fill-rule:nonzero;" d="M 243.48 -16.65 L 246.21 -16.65 L 256.19 -0.75 C 256.71 0.06 257.58 0.58 258.62 0.58 C 260.25 0.58 261.52 -0.7 261.52 -2.32 C 261.52 -2.9 261.35 -3.42 261.06 -3.89 L 252.76 -17.11 C 257.81 -18.5 261.52 -23.14 261.52 -28.65 C 261.52 -35.26 256.19 -40.6 249.52 -40.6 L 243.48 -40.6 L 243.48 -34.8 L 249.52 -34.8 C 253.34 -34.8 255.72 -32.42 255.72 -28.65 C 255.72 -24.82 253.34 -22.45 249.52 -22.45 L 243.48 -22.45 Z"></path><path transform=" translate(-207.525, 20.3)" style="fill:rgb(26,26,26);fill-rule:nonzero;" d="M 275.33 -1.45 L 283.85 -28.71 L 288.32 -14.5 L 281.13 -14.5 L 279.33 -8.7 L 290.12 -8.7 L 292.38 -1.45 C 292.78 -0.29 293.89 0.58 295.16 0.58 C 296.79 0.58 298.06 -0.7 298.06 -2.32 C 298.06 -2.61 298 -2.9 297.95 -3.19 L 286.69 -39.15 C 286.29 -40.31 285.19 -41.18 283.91 -41.18 L 283.85 -41.18 L 283.79 -41.18 C 282.52 -41.18 281.42 -40.31 281.01 -39.15 L 269.76 -3.19 C 269.7 -2.9 269.64 -2.61 269.64 -2.32 C 269.64 -0.7 270.92 0.58 272.54 0.58 C 273.82 0.58 274.92 -0.29 275.33 -1.45 Z"></path><path transform=" translate(-207.525, 20.3)" style="fill:rgb(26,26,26);fill-rule:nonzero;" d="M 306.18 -37.12 L 306.18 -3.48 C 306.18 -1.51 307.69 0 309.66 0 L 311.98 0 L 311.98 -40.6 L 309.66 -40.6 C 307.69 -40.6 306.18 -39.09 306.18 -37.12 Z"></path><path transform=" translate(-207.525, 20.3)" style="fill:rgb(26,26,26);fill-rule:nonzero;" d="M 313.72 0 L 319.75 0 C 326.42 0 331.76 -5.34 331.76 -11.95 C 331.76 -15.95 329.85 -19.43 326.89 -21.63 C 328.8 -23.66 329.96 -26.33 329.96 -29.35 C 329.96 -35.61 324.97 -40.6 318.71 -40.6 L 313.72 -40.6 L 313.72 -34.8 L 318.71 -34.8 C 322.13 -34.8 324.16 -32.77 324.16 -29.35 C 324.16 -25.98 322.13 -23.95 318.71 -23.95 L 313.72 -23.95 L 313.72 -18.15 L 318.71 -18.15 C 319.06 -18.15 319.41 -18.15 319.75 -18.21 L 319.75 -18.15 C 323.58 -18.15 325.96 -15.78 325.96 -11.95 C 325.96 -8.18 323.58 -5.8 319.75 -5.8 L 313.72 -5.8 Z"></path><path transform=" translate(-207.525, 20.3)" style="fill:rgb(26,26,26);fill-rule:nonzero;" d="M 339.88 -37.12 L 339.88 -3.48 C 339.88 -1.51 341.39 0 343.36 0 L 345.68 0 L 345.68 -40.6 L 343.36 -40.6 C 341.39 -40.6 339.88 -39.09 339.88 -37.12 Z"></path><path transform=" translate(-207.525, 20.3)" style="fill:rgb(26,26,26);fill-rule:nonzero;" d="M 347.42 0 L 353.45 0 C 360.12 0 365.46 -5.34 365.46 -11.95 C 365.46 -15.95 363.54 -19.43 360.59 -21.63 C 362.5 -23.66 363.66 -26.33 363.66 -29.35 C 363.66 -35.61 358.67 -40.6 352.41 -40.6 L 347.42 -40.6 L 347.42 -34.8 L 352.41 -34.8 C 355.83 -34.8 357.86 -32.77 357.86 -29.35 C 357.86 -25.98 355.83 -23.95 352.41 -23.95 L 347.42 -23.95 L 347.42 -18.15 L 352.41 -18.15 C 352.76 -18.15 353.1 -18.15 353.45 -18.21 L 353.45 -18.15 C 357.28 -18.15 359.66 -15.78 359.66 -11.95 C 359.66 -8.18 357.28 -5.8 353.45 -5.8 L 347.42 -5.8 Z"></path><path transform=" translate(-207.525, 20.3)" style="fill:rgb(26,26,26);fill-rule:nonzero;" d="M 379.38 -2.32 L 379.38 -38.28 C 379.38 -39.9 378.1 -41.18 376.48 -41.18 C 374.85 -41.18 373.58 -39.9 373.58 -38.28 L 373.58 -2.32 C 373.58 -0.7 374.85 0.58 376.48 0.58 C 378.1 0.58 379.38 -0.7 379.38 -2.32 Z"></path><path transform=" translate(-207.525, 20.3)" style="fill:rgb(26,26,26);fill-rule:nonzero;" d="M 390.4 -34.8 L 397.07 -34.8 L 397.07 -2.32 C 397.07 -0.7 398.34 0.58 399.97 0.58 C 401.59 0.58 402.87 -0.7 402.87 -2.32 L 402.87 -34.8 L 409.54 -34.8 C 411.16 -34.8 412.44 -36.08 412.44 -37.7 C 412.44 -39.32 411.16 -40.6 409.54 -40.6 L 390.4 -40.6 C 388.77 -40.6 387.5 -39.32 387.5 -37.7 C 387.5 -36.08 388.77 -34.8 390.4 -34.8 Z"></path></g>
<text x="499" y="576" text-anchor="middle" style="font-family:&#39;Quicksand&#39;,&#39;Trebuchet MS&#39;,sans-serif;font-weight:500;font-size:26px;letter-spacing:2px;fill:rgb(165,166,165);">We ship better</text>
</svg>